<mxfile host="app.diagrams.net" modified="2021-10-21T10:26:06.103Z" agent="5.0 (Macintosh; Intel Mac OS X 10_15_7) AppleWebKit/537.36 (KHTML, like Gecko) Chrome/94.0.4606.81 Safari/537.36" etag="HeK4uw_vPwksK1Sss2bR" version="15.5.6" type="github">
  <diagram id="qQ4VvKvjCSt2MPSljPGY" name="Page-1">
    <mxGraphModel dx="2066" dy="1018" grid="1" gridSize="10" guides="1" tooltips="1" connect="1" arrows="1" fold="1" page="1" pageScale="1" pageWidth="827" pageHeight="1169" math="0" shadow="0">
      <root>
        <mxCell id="0" />
        <mxCell id="1" parent="0" />
        <mxCell id="AvM6Y5PnJRR4aBAU-_6O-3" value="" style="rounded=1;whiteSpace=wrap;html=1;fontSize=13;fillColor=none;" parent="1" vertex="1">
          <mxGeometry x="310" y="290" width="200" height="70" as="geometry" />
        </mxCell>
        <mxCell id="AvM6Y5PnJRR4aBAU-_6O-8" style="edgeStyle=orthogonalEdgeStyle;rounded=0;orthogonalLoop=1;jettySize=auto;html=1;exitX=0.5;exitY=1;exitDx=0;exitDy=0;fontSize=14;dashed=1;dashPattern=1 2;" parent="1" source="AvM6Y5PnJRR4aBAU-_6O-1" edge="1">
          <mxGeometry relative="1" as="geometry">
            <mxPoint x="360" y="560" as="targetPoint" />
          </mxGeometry>
        </mxCell>
        <mxCell id="AvM6Y5PnJRR4aBAU-_6O-1" value="&lt;font style=&quot;font-size: 13px&quot;&gt;Replica 1&lt;/font&gt;" style="rounded=0;whiteSpace=wrap;html=1;fillColor=#f5f5f5;strokeColor=#666666;fontColor=#333333;" parent="1" vertex="1">
          <mxGeometry x="320" y="310" width="80" height="40" as="geometry" />
        </mxCell>
        <mxCell id="AvM6Y5PnJRR4aBAU-_6O-9" style="edgeStyle=orthogonalEdgeStyle;rounded=0;orthogonalLoop=1;jettySize=auto;html=1;exitX=0.5;exitY=1;exitDx=0;exitDy=0;fontSize=14;dashed=1;dashPattern=1 2;" parent="1" source="AvM6Y5PnJRR4aBAU-_6O-2" edge="1">
          <mxGeometry relative="1" as="geometry">
            <mxPoint x="460" y="560" as="targetPoint" />
          </mxGeometry>
        </mxCell>
        <mxCell id="AvM6Y5PnJRR4aBAU-_6O-2" value="&lt;font style=&quot;font-size: 14px&quot;&gt;Replica n&lt;/font&gt;" style="rounded=0;whiteSpace=wrap;html=1;fillColor=#f5f5f5;strokeColor=#666666;fontColor=#333333;" parent="1" vertex="1">
          <mxGeometry x="420" y="310" width="80" height="40" as="geometry" />
        </mxCell>
        <mxCell id="AvM6Y5PnJRR4aBAU-_6O-4" value="Shard" style="text;html=1;align=center;verticalAlign=middle;resizable=0;points=[];autosize=1;strokeColor=none;fillColor=none;fontSize=13;" parent="1" vertex="1">
          <mxGeometry x="385" y="290" width="50" height="20" as="geometry" />
        </mxCell>
        <mxCell id="AvM6Y5PnJRR4aBAU-_6O-10" style="edgeStyle=orthogonalEdgeStyle;rounded=0;orthogonalLoop=1;jettySize=auto;html=1;exitX=0.5;exitY=1;exitDx=0;exitDy=0;fontSize=14;dashed=1;dashPattern=1 2;" parent="1" source="AvM6Y5PnJRR4aBAU-_6O-5" edge="1">
          <mxGeometry relative="1" as="geometry">
            <mxPoint x="570" y="560" as="targetPoint" />
          </mxGeometry>
        </mxCell>
        <mxCell id="AvM6Y5PnJRR4aBAU-_6O-5" value="&lt;font style=&quot;font-size: 14px&quot;&gt;Ordering layer&lt;/font&gt;" style="rounded=0;whiteSpace=wrap;html=1;fillColor=#f5f5f5;strokeColor=#666666;fontColor=#333333;" parent="1" vertex="1">
          <mxGeometry x="530" y="310" width="80" height="40" as="geometry" />
        </mxCell>
        <mxCell id="AvM6Y5PnJRR4aBAU-_6O-7" style="edgeStyle=orthogonalEdgeStyle;rounded=0;orthogonalLoop=1;jettySize=auto;html=1;exitX=0.5;exitY=1;exitDx=0;exitDy=0;fontSize=14;dashed=1;dashPattern=1 2;" parent="1" source="AvM6Y5PnJRR4aBAU-_6O-6" edge="1">
          <mxGeometry relative="1" as="geometry">
            <mxPoint x="250" y="560" as="targetPoint" />
          </mxGeometry>
        </mxCell>
        <mxCell id="AvM6Y5PnJRR4aBAU-_6O-6" value="&lt;font style=&quot;font-size: 14px&quot;&gt;Client&lt;/font&gt;" style="rounded=0;whiteSpace=wrap;html=1;fillColor=#f5f5f5;strokeColor=#666666;fontColor=#333333;" parent="1" vertex="1">
          <mxGeometry x="210" y="310" width="80" height="40" as="geometry" />
        </mxCell>
        <mxCell id="AvM6Y5PnJRR4aBAU-_6O-11" value="" style="endArrow=classic;html=1;rounded=0;fontSize=14;edgeStyle=orthogonalEdgeStyle;" parent="1" edge="1">
          <mxGeometry width="50" height="50" relative="1" as="geometry">
            <mxPoint x="150" y="382.43" as="sourcePoint" />
            <mxPoint x="250" y="382.43" as="targetPoint" />
          </mxGeometry>
        </mxCell>
        <mxCell id="AvM6Y5PnJRR4aBAU-_6O-12" value="&lt;b&gt;1.&amp;nbsp;&lt;/b&gt;Append(&lt;i&gt;r, c&lt;/i&gt;)" style="text;html=1;align=center;verticalAlign=middle;resizable=0;points=[];autosize=1;strokeColor=none;fillColor=none;fontSize=14;" parent="1" vertex="1">
          <mxGeometry x="146" y="360.43" width="110" height="20" as="geometry" />
        </mxCell>
        <mxCell id="AvM6Y5PnJRR4aBAU-_6O-14" value="" style="endArrow=classic;html=1;rounded=0;fontSize=14;" parent="1" edge="1">
          <mxGeometry width="50" height="50" relative="1" as="geometry">
            <mxPoint x="250" y="389" as="sourcePoint" />
            <mxPoint x="360" y="419" as="targetPoint" />
          </mxGeometry>
        </mxCell>
        <mxCell id="AvM6Y5PnJRR4aBAU-_6O-17" value="" style="endArrow=classic;html=1;rounded=0;fontSize=14;" parent="1" edge="1">
          <mxGeometry width="50" height="50" relative="1" as="geometry">
            <mxPoint x="250" y="389" as="sourcePoint" />
            <mxPoint x="460" y="409" as="targetPoint" />
          </mxGeometry>
        </mxCell>
        <mxCell id="AvM6Y5PnJRR4aBAU-_6O-18" value="&lt;b&gt;2.&amp;nbsp;&lt;/b&gt;APP(&lt;i&gt;r, t, c&lt;/i&gt;)" style="text;html=1;align=center;verticalAlign=middle;resizable=0;points=[];autosize=1;strokeColor=none;fillColor=none;fontSize=14;" parent="1" vertex="1">
          <mxGeometry x="256" y="372" width="100" height="20" as="geometry" />
        </mxCell>
        <mxCell id="AvM6Y5PnJRR4aBAU-_6O-19" value="" style="endArrow=classic;html=1;rounded=0;fontSize=14;" parent="1" edge="1">
          <mxGeometry width="50" height="50" relative="1" as="geometry">
            <mxPoint x="460" y="419" as="sourcePoint" />
            <mxPoint x="570" y="429" as="targetPoint" />
          </mxGeometry>
        </mxCell>
        <mxCell id="AvM6Y5PnJRR4aBAU-_6O-21" value="&lt;b&gt;3.&amp;nbsp;&lt;/b&gt;OReq(&lt;i&gt;t, c&lt;/i&gt;)" style="text;html=1;align=center;verticalAlign=middle;resizable=0;points=[];autosize=1;strokeColor=none;fillColor=none;fontSize=14;" parent="1" vertex="1">
          <mxGeometry x="465" y="402" width="100" height="20" as="geometry" />
        </mxCell>
        <mxCell id="AvM6Y5PnJRR4aBAU-_6O-22" value="" style="endArrow=classic;html=1;rounded=0;fontSize=14;" parent="1" edge="1">
          <mxGeometry width="50" height="50" relative="1" as="geometry">
            <mxPoint x="570" y="459" as="sourcePoint" />
            <mxPoint x="360" y="479" as="targetPoint" />
          </mxGeometry>
        </mxCell>
        <mxCell id="AvM6Y5PnJRR4aBAU-_6O-23" value="&lt;b&gt;4.&amp;nbsp;&lt;/b&gt;ORsp(&lt;i&gt;t, c, s&lt;/i&gt;)" style="text;html=1;align=center;verticalAlign=middle;resizable=0;points=[];autosize=1;strokeColor=none;fillColor=none;fontSize=14;" parent="1" vertex="1">
          <mxGeometry x="460" y="439" width="110" height="20" as="geometry" />
        </mxCell>
        <mxCell id="AvM6Y5PnJRR4aBAU-_6O-24" value="" style="endArrow=classic;html=1;rounded=0;fontSize=14;" parent="1" edge="1">
          <mxGeometry width="50" height="50" relative="1" as="geometry">
            <mxPoint x="570" y="459" as="sourcePoint" />
            <mxPoint x="460" y="489" as="targetPoint" />
          </mxGeometry>
        </mxCell>
        <mxCell id="AvM6Y5PnJRR4aBAU-_6O-25" value="" style="endArrow=classic;html=1;rounded=0;fontSize=14;" parent="1" edge="1">
          <mxGeometry width="50" height="50" relative="1" as="geometry">
            <mxPoint x="360" y="501" as="sourcePoint" />
            <mxPoint x="250" y="511" as="targetPoint" />
          </mxGeometry>
        </mxCell>
        <mxCell id="AvM6Y5PnJRR4aBAU-_6O-26" value="&lt;b&gt;5.&amp;nbsp;&lt;/b&gt;ACK(&lt;i&gt;t, s&lt;/i&gt;)" style="text;html=1;align=center;verticalAlign=middle;resizable=0;points=[];autosize=1;strokeColor=none;fillColor=none;fontSize=14;" parent="1" vertex="1">
          <mxGeometry x="261" y="483" width="90" height="20" as="geometry" />
        </mxCell>
        <mxCell id="AvM6Y5PnJRR4aBAU-_6O-27" value="" style="endArrow=classic;html=1;rounded=0;fontSize=14;" parent="1" edge="1">
          <mxGeometry width="50" height="50" relative="1" as="geometry">
            <mxPoint x="460" y="509" as="sourcePoint" />
            <mxPoint x="250" y="529" as="targetPoint" />
          </mxGeometry>
        </mxCell>
        <mxCell id="AvM6Y5PnJRR4aBAU-_6O-28" value="&lt;b&gt;5.&amp;nbsp;&lt;/b&gt;ACK(&lt;i&gt;t, s&lt;/i&gt;)" style="text;html=1;align=center;verticalAlign=middle;resizable=0;points=[];autosize=1;strokeColor=none;fillColor=none;fontSize=14;" parent="1" vertex="1">
          <mxGeometry x="365" y="491" width="90" height="20" as="geometry" />
        </mxCell>
        <mxCell id="AvM6Y5PnJRR4aBAU-_6O-29" value="" style="endArrow=classic;html=1;rounded=0;fontSize=14;edgeStyle=orthogonalEdgeStyle;" parent="1" edge="1">
          <mxGeometry width="50" height="50" relative="1" as="geometry">
            <mxPoint x="250" y="539" as="sourcePoint" />
            <mxPoint x="150" y="539" as="targetPoint" />
          </mxGeometry>
        </mxCell>
        <mxCell id="AvM6Y5PnJRR4aBAU-_6O-30" value="&lt;b&gt;6.&amp;nbsp;&lt;/b&gt;return &lt;i&gt;s&lt;/i&gt;" style="text;html=1;align=center;verticalAlign=middle;resizable=0;points=[];autosize=1;strokeColor=none;fillColor=none;fontSize=14;" parent="1" vertex="1">
          <mxGeometry x="165" y="519" width="80" height="20" as="geometry" />
        </mxCell>
        <mxCell id="AvM6Y5PnJRR4aBAU-_6O-31" value="" style="endArrow=classic;html=1;rounded=0;fontSize=14;edgeStyle=orthogonalEdgeStyle;" parent="1" edge="1">
          <mxGeometry width="50" height="50" relative="1" as="geometry">
            <mxPoint x="204.83" y="421" as="sourcePoint" />
            <mxPoint x="204.83" y="491" as="targetPoint" />
          </mxGeometry>
        </mxCell>
        <mxCell id="AvM6Y5PnJRR4aBAU-_6O-32" value="&lt;font style=&quot;font-size: 13px&quot;&gt;&lt;i&gt;time&lt;/i&gt;&lt;/font&gt;" style="text;html=1;align=center;verticalAlign=middle;resizable=0;points=[];autosize=1;strokeColor=none;fillColor=none;fontSize=14;" parent="1" vertex="1">
          <mxGeometry x="166" y="444" width="40" height="20" as="geometry" />
        </mxCell>
      </root>
    </mxGraphModel>
  </diagram>
</mxfile>
